<?xml version="1.0" encoding="utf-8"?>
<!-- Generator: Adobe Illustrator 24.0.1, SVG Export Plug-In . SVG Version: 6.00 Build 0)  -->
<svg version="1.1" id="Ebene_1" xmlns="http://www.w3.org/2000/svg" xmlns:xlink="http://www.w3.org/1999/xlink" x="0px" y="0px"
	 viewBox="0 0 348.9 92.6" style="enable-background:new 0 0 348.9 92.6;" xml:space="preserve">
<g>
	<g>
		<path d="M63.5,5.1L41,55.8h-5.3L13.3,5.1h5.8l19.4,44.1L58.1,5.1H63.5z"/>
		<path d="M70.8,5.1h5.4v50.7h-5.4V5.1z"/>
		<path d="M128.6,51.2v4.6H92.7V5.1h34.8v4.6H98.1v18h26.2v4.6H98.1v18.8H128.6z"/>
		<path d="M141.2,5.1h5.4v46.1H175v4.6h-33.8V5.1z"/>
		<path d="M222,42.9v12.9h-42.2V5.1H221V18h-24.4v5.9H218v12.3h-21.5v6.7H222z"/>
		<path d="M226.5,30.5c0-15.6,12-26.5,28.3-26.5c9.9,0,17.8,3.6,22.8,10.1l-10.8,9.6c-3-3.8-6.5-5.9-11.1-5.9
			c-7.1,0-11.9,4.9-11.9,12.7c0,7.8,4.8,12.7,11.9,12.7c4.6,0,8.1-2.2,11.1-5.9l10.8,9.6c-5,6.5-12.8,10.1-22.8,10.1
			C238.5,57,226.5,46,226.5,30.5z"/>
		<path d="M303.1,39l-3.8,4.3v12.5h-16.8V5.1h16.8v18.4L316,5.1h18.6l-20.3,22.3l21.3,28.4h-19.8L303.1,39z"/>
	</g>
	<g>
		<path d="M193.2,74.1c0,3.3-2.4,5.3-6.3,5.3h-4.2v4.9h-1.6V68.8h5.8C190.9,68.8,193.2,70.8,193.2,74.1z M191.6,74.1
			c0-2.5-1.6-3.9-4.7-3.9h-4.1v7.8h4.1C190,77.9,191.6,76.5,191.6,74.1z"/>
		<path d="M202,72.5v1.5c-0.1,0-0.3,0-0.4,0c-2.4,0-3.9,1.6-3.9,4.3v5.9h-1.6V72.6h1.5v2.3C198.4,73.3,199.9,72.5,202,72.5z"/>
		<path d="M203.6,78.4c0-3.5,2.5-5.9,5.9-5.9c3.4,0,5.9,2.5,5.9,5.9s-2.5,5.9-5.9,5.9C206.1,84.4,203.6,81.9,203.6,78.4z
			 M213.9,78.4c0-2.7-1.8-4.5-4.3-4.5s-4.3,1.8-4.3,4.5c0,2.7,1.9,4.5,4.3,4.5S213.9,81.2,213.9,78.4z"/>
		<path d="M214.5,87.9l0.6-1.2c0.5,0.4,1.1,0.6,1.8,0.6c1.2,0,1.9-0.8,1.9-2.2V72.6h1.6v12.5c0,2.2-1.2,3.5-3.4,3.5
			C216,88.7,215.1,88.4,214.5,87.9z M218.4,68.9c0-0.6,0.5-1.1,1.2-1.1s1.2,0.5,1.2,1.1c0,0.6-0.5,1.2-1.2,1.2
			C218.9,70.1,218.4,69.6,218.4,68.9z"/>
		<path d="M234.9,78.9h-9.8c0.2,2.4,2,4.1,4.6,4.1c1.4,0,2.7-0.5,3.6-1.5l0.9,1c-1,1.2-2.7,1.9-4.5,1.9c-3.6,0-6.1-2.5-6.1-5.9
			s2.4-5.9,5.7-5.9c3.3,0,5.7,2.4,5.7,5.9C234.9,78.6,234.9,78.8,234.9,78.9z M225.2,77.8h8.3c-0.2-2.3-1.9-3.9-4.1-3.9
			C227,73.9,225.4,75.5,225.2,77.8z"/>
		<path d="M242.5,78.4l-2.7,2.5v3.3h-1.6V67.8h1.6V79l7-6.4h2l-5,4.8l5.5,6.9h-1.9L242.5,78.4z"/>
		<path d="M257.6,83.6c-0.6,0.6-1.6,0.8-2.5,0.8c-2.2,0-3.4-1.2-3.4-3.4v-7.1h-2.1v-1.3h2.1v-2.5h1.6v2.5h3.5v1.3h-3.5v7
			c0,1.4,0.7,2.1,2,2.1c0.6,0,1.3-0.2,1.7-0.6L257.6,83.6z"/>
		<path d="M277.5,76.5h1.6v5.9c-1.5,1.3-3.5,2-5.7,2c-4.7,0-8.2-3.3-8.2-7.9c0-4.5,3.5-7.9,8.2-7.9c2.3,0,4.4,0.8,5.8,2.2l-1,1
			c-1.3-1.3-2.9-1.8-4.7-1.8c-3.8,0-6.7,2.7-6.7,6.4c0,3.7,2.8,6.4,6.6,6.4c1.5,0,2.9-0.3,4.1-1.2V76.5z"/>
		<path d="M302.7,77.5v6.8h-1.6v-6.6c0-2.5-1.2-3.7-3.3-3.7c-2.4,0-3.9,1.6-3.9,4.2v6.1h-1.6v-6.6c0-2.5-1.2-3.7-3.4-3.7
			c-2.4,0-3.9,1.6-3.9,4.2v6.1h-1.6V72.6h1.5v2.1c0.8-1.4,2.3-2.2,4.3-2.2c1.9,0,3.4,0.8,4.1,2.5c0.8-1.5,2.5-2.5,4.6-2.5
			C300.8,72.5,302.7,74.2,302.7,77.5z"/>
		<path d="M318.8,78.4c0,3.5-2.5,5.9-5.8,5.9c-1.9,0-3.5-0.8-4.5-2.4v2.3h-1.5V67.8h1.6v7c1-1.5,2.6-2.3,4.4-2.3
			C316.3,72.5,318.8,74.9,318.8,78.4z M317.2,78.4c0-2.7-1.9-4.5-4.3-4.5c-2.5,0-4.3,1.8-4.3,4.5c0,2.7,1.9,4.5,4.3,4.5
			C315.3,83,317.2,81.2,317.2,78.4z"/>
		<path d="M335.3,68.8v15.5h-1.6v-7.2h-9.7v7.2h-1.6V68.8h1.6v6.9h9.7v-6.9H335.3z"/>
	</g>
</g>
</svg>
